<svg xmlns="http://www.w3.org/2000/svg" width="17.954" height="15.194" viewBox="0 0 17.954 15.194">
  <g id="folder" transform="translate(0 -39.356)">
    <g id="Group_9758" data-name="Group 9758" transform="translate(0 39.356)">
      <path id="Path_68860" data-name="Path 68860" d="M15.742,42.123H10.059a.858.858,0,0,1-.612-.256L7.675,40a2.247,2.247,0,0,0-1.6-.643H2.212A2.215,2.215,0,0,0,0,41.568v10.77A2.215,2.215,0,0,0,2.212,54.55h13.54a2.214,2.214,0,0,0,2.2-2.219v-8A2.215,2.215,0,0,0,15.742,42.123ZM16.6,52.333a.86.86,0,0,1-.852.863H2.212a.86.86,0,0,1-.859-.859V41.568a.861.861,0,0,1,.859-.86h3.9a.854.854,0,0,1,.593.236L8.471,42.8a2.223,2.223,0,0,0,1.588.672h5.682a.86.86,0,0,1,.859.859v8Z" transform="translate(0 -39.356)" fill="#c00"/>
    </g>
  </g>
</svg>
