<svg xmlns="http://www.w3.org/2000/svg" width="33.533" height="33.533" viewBox="0 0 33.533 33.533">
  <path id="Profile_icon" d="M4.908,7.189A16.137,16.137,0,0,1,16.766,2.27a16.137,16.137,0,0,1,11.858,4.92,16.167,16.167,0,0,1,4.908,11.847,16.167,16.167,0,0,1-4.908,11.847A16.137,16.137,0,0,1,16.766,35.8a16.137,16.137,0,0,1-11.858-4.92A16.167,16.167,0,0,1,0,19.036,16.167,16.167,0,0,1,4.908,7.189ZM20.3,8.764a4.8,4.8,0,0,0-3.534-1.456,4.935,4.935,0,0,0-3.573,1.456A4.763,4.763,0,0,0,11.7,12.306a4.892,4.892,0,0,0,1.492,3.582,4.869,4.869,0,0,0,3.573,1.5,4.741,4.741,0,0,0,3.534-1.5,4.959,4.959,0,0,0,1.453-3.582A4.827,4.827,0,0,0,20.3,8.764ZM10.994,29.7a11.864,11.864,0,0,0,5.772,1.456A11.643,11.643,0,0,0,22.5,29.7a11.973,11.973,0,0,0,4.28-3.975,3.416,3.416,0,0,0-1.845-2.794,13.667,13.667,0,0,0-4.084-1.81,16.132,16.132,0,0,0-4.084-.59,16.132,16.132,0,0,0-4.084.59A13.667,13.667,0,0,0,8.6,22.932a3.648,3.648,0,0,0-1.924,2.794A11.878,11.878,0,0,0,10.994,29.7Z" transform="translate(0 -2.27)" fill="#fff" opacity="0.9"/>
</svg>
